<?xml version="1.0" encoding="UTF-8"?>
<svg id="Capa_2" data-name="Capa 2" xmlns="http://www.w3.org/2000/svg" viewBox="0 0 214.9 202.39">
  <defs>
    <style>
      .cls-1 {
        fill: #fff;
        stroke-width: 0px;
      }
    </style>
  </defs>
  <g id="Capa_1-2" data-name="Capa 1">
    <path class="cls-1" d="m73.47,8.15l7.89-2.1C93.6,2.79,105.5.79,116.94.22c12.15-.61,22.95.02,32.14,1.99,9.61,2.06,18.36,5.5,26.14,10.4,8.05,5.07,14.62,10.68,19.55,16.78,5.04,6.24,9.15,13.39,12.3,21.45,3.19,8.17,5.3,15.74,6.31,22.64,1.01,6.94,1.52,14.26,1.52,21.93v10.16c0,7.68-.51,15-1.52,21.94-1.01,6.91-3.13,14.54-6.31,22.82-3.15,8.18-7.22,15.46-12.15,21.83-4.84,6.24-11.41,11.96-19.56,17.13-7.88,4.99-16.64,8.54-26.16,10.72-9.11,2.09-19.89,2.77-32.05,2.16-11.45-.58-23.44-2.59-35.8-5.89l-7.89-2.1c-11.07-2.95-20.52-6.49-28.56-10.61-7.66-3.92-13.82-7.97-18.64-12.19-4.67-4.09-8.65-8.62-12-13.6-3.27-4.86-5.77-9.52-7.54-14.04-1.74-4.46-3.14-9.21-4.19-14.26-1.05-5.01-1.73-9.49-2.05-13.45-.32-3.95-.48-8.07-.48-12.39v-5.7c0-4.31.16-8.44.48-12.39.32-3.96,1-8.4,2.05-13.36,1.05-4.99,2.45-9.68,4.19-14.08,1.77-4.45,4.27-9.06,7.54-13.85,3.35-4.91,7.33-9.37,12-13.4,4.82-4.16,10.98-8.18,18.64-12.09,8.05-4.11,17.49-7.66,28.56-10.61h0Zm58.67,94.14v-3.94c0-6.19-.93-11.93-2.79-17.17-1.84-5.2-4.9-10.11-9.13-14.72-4.15-4.5-10.13-7.72-17.79-9.66-7.36-1.86-15.8-2.14-25.15-.94-9.1,1.17-16.48,3.36-22.31,6.52-5.64,3.06-9.75,6.68-12.42,10.9-2.64,4.15-4.47,8.29-5.52,12.46-1.05,4.14-1.57,8.56-1.57,13.28v2.58c0,4.72.54,9.22,1.64,13.49,1.1,4.31,2.96,8.63,5.6,12.99,2.68,4.44,6.81,8.24,12.51,11.45,5.9,3.32,13.2,5.57,22.08,6.7,9.35,1.2,17.82.87,25.25-1.08,7.73-2.03,13.73-5.39,17.8-10.09s7.19-9.91,9.02-15.3c1.86-5.43,2.79-11.27,2.79-17.46h-.01Z"/>
  </g>
</svg>
